<?xml version="1.0" encoding="UTF-8" standalone="no"?>
<!DOCTYPE svg PUBLIC "-//W3C//DTD SVG 1.1//EN" "http://www.w3.org/Graphics/SVG/1.1/DTD/svg11.dtd">
<svg version="1.1" xmlns="http://www.w3.org/2000/svg" xmlns:xlink="http://www.w3.org/1999/xlink" preserveAspectRatio="xMidYMid meet" viewBox="0 0 640 640" width="1024" height="1024"><defs><path d="M639.98 -0.01C639.98 -0.01 639.98 -0.01 639.98 -0.01C639.98 383.99 639.98 597.32 639.98 639.98C639.98 639.98 639.98 639.98 639.98 639.98C255.99 639.98 42.66 639.98 -0.01 639.98C-0.01 639.98 -0.01 639.98 -0.01 639.98C-0.01 255.99 -0.01 42.66 -0.01 -0.01C-0.01 -0.01 -0.01 -0.01 -0.01 -0.01C383.98 -0.01 597.31 -0.01 639.98 -0.01Z" id="d158qGEgkX"></path><path d="M437.7 190.2C447.1 108.17 408.31 46.44 319.99 46.44C231.68 46.44 192.88 108.17 202.27 190.2C209.91 256.79 239.03 337.87 319.99 337.86C400.94 337.85 430.08 256.79 437.7 190.2Z" id="b1vXBhIDG9"></path><path d="M530.57 453.65C525.1 422.84 518.15 377.66 491.25 357.58C475.69 345.97 455.54 342.16 437.73 335.16C429.06 331.76 421.3 328.37 414.01 324.52C389.41 351.5 357.33 365.61 319.97 365.61C282.63 365.61 250.56 351.5 225.96 324.52C218.67 328.38 210.9 331.76 202.23 335.16C184.42 342.16 164.28 345.97 148.72 357.58C121.81 377.67 114.86 422.84 109.4 453.65C104.89 479.09 101.86 505.04 100.98 530.88C100.29 550.89 110.17 553.7 126.92 559.74C147.88 567.3 169.53 572.91 191.32 577.52C233.4 586.4 276.78 593.23 319.98 593.54C363.17 593.23 406.55 586.4 448.63 577.52C470.42 572.92 492.07 567.3 513.03 559.74C529.78 553.7 539.66 550.89 538.98 530.88C538.1 505.04 535.08 479.09 530.57 453.65Z" id="b3rj19AaQk"></path></defs><g><g><g><g><use xlink:href="#d158qGEgkX" opacity="1" fill-opacity="0" stroke="#000000" stroke-width="1" stroke-opacity="0"></use></g></g><g><use xlink:href="#b1vXBhIDG9" opacity="1" fill="#ffffff" fill-opacity="1"></use><g><use xlink:href="#b1vXBhIDG9" opacity="1" fill-opacity="0" stroke="#000000" stroke-width="1" stroke-opacity="0"></use></g></g><g><use xlink:href="#b3rj19AaQk" opacity="1" fill="#ffffff" fill-opacity="1"></use><g><use xlink:href="#b3rj19AaQk" opacity="1" fill-opacity="0" stroke="#000000" stroke-width="1" stroke-opacity="0"></use></g></g></g></g></svg>
